<?xml version="1.0" encoding="utf-8"?>
<!-- Generator: Adobe Illustrator 21.1.0, SVG Export Plug-In . SVG Version: 6.00 Build 0)  -->
<svg version="1.1" id="logo" xmlns="http://www.w3.org/2000/svg" xmlns:xlink="http://www.w3.org/1999/xlink" x="0px" y="0px"
	 viewBox="0 0 432 432" style="enable-background:new 0 0 432 432;" xml:space="preserve">
<style type="text/css">
	.st0{fill:#BE1622;}
	.st1{fill:#1D71B8;}
	.st2{fill:#FFED00;}
</style>
<g>
	<path class="st0" d="M391.6,233.1L357.8,218c-8.4-3.8-24-10.8-16.9-26.6c4-8.9,8.7-11.6,12.9-13.9c3.8-2.2,6.8-3.9,9.8-10.6
		c3.5-7.8,0.7-19.1-9.1-23.4c-7.9-3.5-19.2-1.5-23.5,7.2c-3.2,6.6-2.4,9.6-1.2,13.8c1.3,4.6,2.9,10.3-1.4,19.9
		c-6.7,15-17,12.8-26.2,8.7l-35.3-15.8l-9.1,20.4c-3,7.2-2.4,10.6,5.4,14.1c7,3.1,10.3,2.2,14.5,1c4.8-1.3,10.2-2.9,19.5,1.8
		c11.8,5.8,16.7,21.1,10.9,33.9c-6.5,14.6-22.7,18.1-34,13.1c-9.2-4.1-11.9-8.9-14.3-13.1c-2.1-3.7-3.8-6.6-10.2-9.5
		c-5.6-2.5-9.3-1.5-15.2,11.2L214,295.8C273,289.9,347.3,280,391.6,233.1z"/>
	<path class="st1" d="M202,206.2c9.7,0,14.1,3.2,18,6.1c3.5,2.6,6.3,4.6,13.7,4.6c8.5,0,17.7-7.2,17.7-17.8
		c0-8.6-6.5-18.1-16.2-18.5c-7.3-0.3-9.7,1.7-13.1,4.5c-3.7,3-8.2,6.8-18.8,6.8c-16.5,0-18.7-10.3-18.7-20.3v-20.7H169
		c-9,0-12.2,1.7-12.2,10.7c0,7.7,2.2,10.3,5,13.7c3.2,3.8,6.7,8.1,6.4,18.5c-0.5,13.2-12.4,23.8-26.5,23.8
		c-16,0-25.8-13.3-25.8-25.7c0-10,3.3-14.5,6.2-18.4c2.5-3.4,4.5-6.1,4.5-13.2c0-6.5-2.6-9.3-18.3-9.3h-57
		c24,51.6,84.2,101,133.4,129.7v-48C184.7,223.4,184.7,206.2,202,206.2z"/>
	<path class="st2" d="M134.5,160.2c0,9.7-3.2,14.1-6.1,18c-2.6,3.5-4.6,6.3-4.6,13.7c0,8.5,7.2,17.7,17.8,17.7
		c8.6,0,18.1-6.5,18.5-16.2c0.3-7.3-1.7-9.7-4.5-13.1c-3-3.7-6.8-8.2-6.8-18.8c0-16.5,10.3-18.7,20.3-18.7h15.5v-20.7
		c0-9.1-1.6-12.3-10.7-12.3c-7.7,0-10.3,2.2-13.7,5c-3.8,3.2-8.1,6.8-18.5,6.4c-13.2-0.5-23.9-12.4-23.9-26.5
		c0-16,13.3-25.8,25.7-25.8c10,0,14.5,3.3,18.4,6.2c3.4,2.5,6.1,4.5,13.2,4.5c6.5,0,9.3-2.6,9.3-18.3V50.7c-8.2-8.9-29.3-27-64.9-27
		c-47.3,0-79.1,49.9-79.1,83.9c0,11.7,2.6,23.5,7.2,35.3h60.3C117.4,142.9,134.5,142.9,134.5,160.2z"/>
	<path class="st1" d="M335,93.2c-7.1-32.1-36.4-69.5-77.4-69.5c-35.7,0-56.7,18.1-64.9,27v10.5c0,9.2,0,26.3-17.3,26.3
		c-9.7,0-14.1-3.2-18-6.1c-3.5-2.6-6.3-4.6-13.7-4.6c-8.5,0-17.7,7.2-17.7,17.8c0,8.6,6.5,18.1,16.2,18.5c7.3,0.3,9.7-1.7,13.1-4.5
		c3.7-3,8.2-6.8,18.8-6.8c16.5,0,18.7,10.3,18.7,20.3v20.7h38.7c9.1,0,12.3-1.6,12.3-10.7c0-7.7-2.2-10.3-5-13.7
		c-3.2-3.8-6.7-8.1-6.4-18.5c0.5-13.2,12.4-23.9,26.5-23.9c16,0,25.8,13.3,25.8,25.7c0,10-3.3,14.5-6.2,18.4
		c-2.5,3.4-4.5,6.1-4.5,13.2c0,6.5,2.6,9.3,18.3,9.3h39.5c1.3-4.6,2.3-9.4,3.1-14.2c1.1-6.8,1.7-13.8,1.7-21.1
		C336.7,103,336.1,98.2,335,93.2z"/>
</g>
<g>
	<path class="st1" d="M192.3,351.1l-0.5-10.1c-3.4-2.2-6.9-3.9-10.6-5c-3.7-1.1-7.5-1.6-11.5-1.6c-10.2,0-18.4,3.1-24.5,9.3
		c-6.1,6.2-9.2,14.5-9.2,24.9c0,7.3,1.6,13.8,4.7,19.5s7.5,10.2,13.3,13.5c5.7,3.3,11.8,5,18.2,5c5.1,0,10.1-0.6,15-1.8
		c3.7-0.9,7.4-2.7,11.2-5.4l1.2,1.1c-0.8,1.7-1.5,3.5-2.2,5.3c-4.4,2.2-8.9,3.8-13.3,5s-9,1.7-13.5,1.7c-9.3,0-17.5-1.8-24.5-5.4
		s-12.5-8.5-16.2-14.9c-3.8-6.3-5.7-13.5-5.7-21.5s1.9-15.1,5.7-21.4c3.8-6.3,9.2-11.2,16.2-14.6c7-3.5,15.5-5.2,25.7-5.2
		c5.3,0,11.6,0.9,18.7,2.6c3.6,0.8,6.4,1.5,8.7,1.9c-1.7,4-2.7,9.7-2.9,17.1H192.3z"/>
	<path class="st1" d="M205.1,407.8h3.6c3.5,0,5.6-0.9,6.3-2.6s1-9.8,1-24.4v-19.2c0-15.1-0.3-23.4-0.9-25c-0.6-1.5-2.4-2.3-5.4-2.3
		h-4.6v-3.6c6.3,0.3,12.5,0.4,18.6,0.4c5.1,0,9.7-0.1,13.9-0.4v3.6h-4.4c-2.7,0-4.4,0.3-5.1,1s-1.1,2.3-1.2,4.9
		c-0.2,4-0.3,11.2-0.3,21.6v19.6c0,14.7,0.3,22.8,1,24.3c0.6,1.5,2.7,2.2,6.2,2.2h3.8v3.6c-4.7-0.3-9.7-0.4-15.2-0.4
		c-6.4,0-12.2,0.1-17.3,0.4L205.1,407.8L205.1,407.8z"/>
	<path class="st1" d="M266.5,372.8v13.9l0.1,8c0,5,0.1,8.6,0.2,11c5.5,0.4,11.4,0.6,17.8,0.6c4.2,0,7.8-0.2,10.7-0.6
		c1.9-0.2,3.8-0.7,5.9-1.5c0.9-3.3,1.9-7.5,2.9-12.5h3.7c-1,8.3-1.5,13.8-1.5,16.6l0.1,2.6c-4.3,0.4-8.6,0.6-12.8,0.6l-8.9-0.2
		c-9.8-0.3-17-0.4-21.7-0.4c-4.4,0-10.3,0.1-17.6,0.4v-3.6h1.8c3.3,0,5.4-0.3,6.2-1c0.9-0.6,1.4-2.2,1.7-4.5
		c0.3-2.4,0.4-7.6,0.4-15.8v-31.1c0-5.1-0.1-9.3-0.4-12.5c-0.2-3.2-0.5-5.2-0.8-5.8c-0.3-0.6-0.7-1.1-1.2-1.4s-2.2-0.6-4.9-0.9
		l-4.4-0.5v-3.6h6.1l6,0.2c3.4,0.1,5.9,0.2,7.7,0.2l21.8-0.3l10.3-0.1c3.5,0,7.1,0.1,10.7,0.4c-1.4,4.5-2.2,10.3-2.4,17.5h-3.9
		c0-4.2-0.2-7.6-0.6-10.4c-4.5-1.7-9.9-2.5-16.4-2.5c-5.2,0-10.6,0.2-16.3,0.7c0,3.5,0,7.1-0.1,10.6l-0.1,8.7v11.5
		c3.7,0.3,7,0.4,9.9,0.4c9,0,14.1-0.3,15.3-0.9s1.8-2.6,1.8-5.8v-3.7h3.9c-0.3,5.7-0.4,10.3-0.4,13.7c0,3.6,0.1,7.8,0.4,12.7h-3.9
		v-3.3c0-3.6-0.7-5.8-2.1-6.7c-1.4-0.9-6.4-1.2-15-1.2C273.2,372.4,269.9,372.5,266.5,372.8z"/>
</g>
</svg>
